<svg width="64" height="51" viewBox="0 0 64 51" fill="none" xmlns="http://www.w3.org/2000/svg">
<path d="M13.293 0C9.64125 0 6.939 3.19625 7.06 6.6625C7.17625 9.9925 7.02525 14.3057 5.9395 17.823C4.8505 21.3505 3.0085 23.585 0 23.872V27.111C3.0085 27.398 4.8505 29.6325 5.9395 33.1603C7.02525 36.6775 7.17625 40.9902 7.06 44.3205C6.939 47.7862 9.64125 50.983 13.2935 50.983H50.7118C54.3637 50.983 57.0652 47.7867 56.9442 44.3205C56.8282 40.9905 56.979 36.6775 58.0648 33.1603C59.1545 29.6328 60.9915 27.3978 64 27.111V23.872C60.9915 23.585 59.1545 21.3505 58.065 17.823C56.979 14.3062 56.8282 9.99275 56.9442 6.6625C57.0652 3.19675 54.3637 0 50.7118 0H13.293ZM43.39 31.3832C43.39 36.1562 39.83 39.0508 33.922 39.0508H23.8645C23.5768 39.0507 23.301 38.9364 23.0976 38.7329C22.8943 38.5295 22.78 38.2536 22.78 37.966V13.017C22.78 12.8745 22.808 12.7334 22.8625 12.6018C22.917 12.4702 22.9969 12.3506 23.0976 12.2498C23.1984 12.149 23.318 12.0691 23.4496 12.0146C23.5812 11.9601 23.7223 11.932 23.8647 11.932H33.8645C38.7907 11.932 42.0238 14.6007 42.0238 18.6978C42.0238 21.5735 39.8487 24.148 37.078 24.5987V24.749C40.8502 25.1628 43.39 27.775 43.39 31.3832ZM32.825 15.3708H27.0907V23.4708H31.9207C35.6542 23.4708 37.7132 21.9673 37.7132 19.2798C37.7132 16.7615 35.9425 15.3708 32.825 15.3708ZM27.0907 26.6847V35.611H33.0363C36.9233 35.611 38.9827 34.0512 38.9827 31.1197C38.9827 28.1877 36.866 26.6842 32.7863 26.6842L27.0907 26.6847Z" fill="#D7D7D7"/>
</svg>
