<svg width="64" height="64" viewBox="0 0 64 64" fill="none" xmlns="http://www.w3.org/2000/svg">
<path d="M32 0C14.328 0 0 14.328 0 32C0 49.672 14.328 64 32 64C49.672 64 64 49.672 64 32C64 14.328 49.672 0 32 0ZM18.5653 20.48C20.576 20.48 22.1307 21.944 22.312 23.68C22.496 25.2347 21.856 26.6053 20.12 27.4293C19.2053 27.8853 18.84 27.888 18.656 27.6133C18.5653 27.4293 18.656 27.248 18.84 27.064C20.4853 25.6933 20.4853 24.5947 20.3013 23.0427C20.2107 22.0347 19.48 21.3947 18.7467 21.3947C15.5467 21.3947 10.976 28.5253 11.616 33.7387C11.8907 35.7493 13.08 38.128 15.64 38.128C16.4613 38.128 17.3733 37.8533 18.2 37.488C19.5333 36.784 20.3307 36.2347 21.1253 35.3547C20.9307 32.9947 23.0027 29.8987 26.0613 29.8987C27.4347 29.8987 28.5307 30.4453 28.6213 31.4533C28.8027 32.824 27.616 33.0053 27.2507 33.0053C26.8853 33.0053 26.2427 32.9147 26.2427 32.552C26.152 32.184 27.0667 32.3653 26.976 31.544C26.8827 30.9947 26.336 30.8133 25.7867 30.8133C23.8667 30.8133 22.7707 33.464 23.0427 35.1093C23.136 35.8427 23.5013 36.5733 24.2347 36.5733C24.7813 36.5733 25.6053 35.7467 25.88 34.56C26.0613 33.7387 26.7947 33.1893 27.4347 33.1893C27.7067 33.1893 27.888 33.28 27.9813 33.6453V34.0133C27.8907 34.3787 27.616 35.4747 27.7093 35.7493C27.7093 35.9333 27.8 36.2053 28.1627 36.2053C28.408 36.2053 29.3253 35.7253 30.2347 34.9813C30.5467 33.408 30.9093 31.52 30.9093 31.3627C31 30.7227 31.2747 30.0827 32.5547 30.0827C32.8293 30.0827 33.0107 30.1733 33.1013 30.5387V30.9067L32.7387 32.552C33.9253 30.9973 35.664 29.9013 36.76 29.9013C37.2187 29.9013 37.584 30.1733 37.584 30.632C37.584 30.9067 37.584 31.3627 37.4 31.8213C37.0347 32.8267 36.576 34.3813 36.3013 35.752C36.3013 36.1173 36.3947 36.4827 36.8533 36.4827C37.3093 36.4827 38.68 35.9333 39.776 34.472L39.7947 34.4613C39.7893 34.28 39.776 34.104 39.776 33.9227C39.776 32.8267 39.8693 31.912 40.0533 31.272C40.2347 30.5413 41.1493 29.9013 41.6987 29.9013C41.9733 29.9013 42.2453 30.0853 42.2453 30.3573C42.2453 30.4507 42.2453 30.632 42.1547 30.7227C41.7893 31.912 41.5147 33.008 41.5147 34.1067C41.5147 34.7467 41.6053 35.6587 41.7867 36.208C41.7867 36.2987 41.88 36.392 41.9733 36.392C42.1547 36.392 43.4347 35.2053 44.3467 33.6507C43.5253 33.1013 43.0667 32.1867 43.0667 31.0907C43.0667 29.1707 44.256 28.1653 45.3547 28.1653C46.2693 28.1653 47 28.8053 47 30.0853C47 30.9067 46.7253 31.8187 46.2693 32.6453H46.5413C46.8314 32.6548 47.1202 32.6026 47.3886 32.4923C47.6571 32.382 47.8991 32.216 48.0987 32.0053C48.1826 31.8668 48.3074 31.7578 48.456 31.6933C49.3493 30.56 50.6693 29.72 52.216 29.72C53.496 29.72 54.68 30.2667 54.7733 31.272C54.9547 32.6453 53.7653 32.92 53.4 32.92L53.3947 32.9147C53.0267 32.9147 52.3893 32.8213 52.3893 32.456C52.3893 32.0907 53.2133 32.2747 53.12 31.4533C53.0293 30.904 52.48 30.72 51.9307 30.72C50.1013 30.72 48.9173 33.096 49.1893 35.016C49.28 35.7493 49.6453 36.5707 50.376 36.5707C50.9253 36.5707 51.7493 35.7493 52.1147 34.56C52.296 33.8293 53.0293 33.1893 53.6693 33.1893C53.944 33.1893 54.1227 33.28 54.216 33.6453C54.216 33.8293 54.216 34.1947 53.8507 35.384C53.3973 36.2053 53.3947 36.664 53.4853 37.0293C53.576 37.76 53.9413 38.3093 54.3093 38.584C54.4 38.6747 54.4907 38.856 54.4907 38.856C54.4907 39.04 54.4 39.224 54.1253 39.224C54.0347 39.224 53.944 39.224 53.8507 39.1307C52.48 38.584 51.9307 37.6693 51.7467 36.7547C51.2 37.3947 50.56 37.76 49.8267 37.76C48.64 37.76 47.4533 36.664 47.2667 35.2907C47.2143 34.7062 47.2823 34.1171 47.4667 33.56C46.9253 33.9067 46.3413 34.1013 45.8053 34.1013H45.352C44.16 35.84 42.88 37.0293 41.9653 37.576C41.6547 37.7413 41.3114 37.836 40.96 37.8533C40.7787 37.8533 40.504 37.76 40.4133 37.576C40.16 37.1707 39.9973 36.5307 39.8987 35.7973C38.616 37.2027 36.8453 37.944 36.024 37.944C35.1093 37.944 34.5627 37.3947 34.472 36.4773V35.4747C34.744 33.464 35.4773 32.2747 35.4773 31.9093C35.4748 31.8611 35.4547 31.8154 35.4208 31.781C35.3869 31.7466 35.3415 31.7259 35.2933 31.7227C34.6533 31.7227 32.552 33.92 32.184 35.384L31.9093 36.5707C31.728 37.3947 30.904 37.944 30.3573 37.944C30.0827 37.944 29.8987 37.8507 29.808 37.4853V37.12L29.9307 36.4987C28.7707 37.3253 27.6107 37.8533 27.064 37.8533C26.2427 37.8533 25.784 37.3947 25.6933 36.7547C25.144 37.4853 24.5067 37.8533 23.6827 37.8533C22.744 37.8533 21.8267 37.2133 21.384 36.272C20.7333 37.0053 19.9893 37.7467 19.112 38.3093C17.832 39.1333 16.3707 39.7733 14.632 39.7733C13.08 39.7733 11.7067 38.9493 10.976 38.2187C9.87733 37.2133 9.24 35.6587 9.14667 34.1947C8.6 29.7147 11.3413 23.9547 15.5467 21.3947C16.5547 20.848 17.56 20.48 18.5653 20.48ZM44.6187 29.256C44.3413 29.256 44.16 29.7147 44.16 30.1707C44.16 30.9013 44.5253 31.7253 44.984 32.184C45.1628 31.6851 45.2548 31.1593 45.256 30.6293C45.256 29.7147 44.8933 29.256 44.6187 29.256Z" fill="#D7D7D7"/>
</svg>
