<svg width="65" height="64" viewBox="0 0 65 64" fill="none" xmlns="http://www.w3.org/2000/svg">
<path fill-rule="evenodd" clip-rule="evenodd" d="M49.1816 0C57.4964 0.000176643 64.2373 6.71584 64.2373 15V49C64.2373 57.2842 57.4964 63.9998 49.1816 64H15.0557C6.74074 64 0 57.2843 0 49V15C0 6.71573 6.74074 0 15.0557 0H49.1816ZM12.7734 17.4854H43.4082L42.6797 25.6631H13.4883L14.2061 33.6484H41.9844L41.0537 44.0049L32.1152 46.4092L32.1074 46.4111L23.1807 44.0098L22.6104 37.6406H14.5645L15.6875 50.1797L32.1055 54.7207L32.1426 54.71L48.5459 50.1797L50.5498 27.8076L50.7451 25.6631L52.1924 9.5H12.0449L12.7734 17.4854Z" fill="#D7D7D7"/>
</svg>
