<svg width="51" height="69" viewBox="0 0 51 69" fill="none" xmlns="http://www.w3.org/2000/svg">
<path d="M25.2259 2.28571H12.6046C6.90556 2.28571 2.28564 6.88859 2.28564 12.5718V12.5667C2.28564 18.2499 6.90042 22.8579 12.6046 22.8579H25.2259M25.2259 2.28571V22.8579M25.2259 2.28571H37.8471C43.5462 2.28571 48.1661 6.88859 48.1661 12.5718V12.5667C48.1661 18.2499 43.5514 22.8579 37.8471 22.8579H25.2259M25.2259 22.8579L13.7558 22.8578C7.41945 22.8578 2.28564 27.9727 2.28564 34.2857C2.28564 40.5935 7.41945 45.7135 13.7558 45.7135H25.2259M25.2259 22.8579V45.7135M25.2259 45.7135H12.6046C6.90556 45.7135 2.28564 50.3164 2.28564 55.9996C2.28564 61.6777 6.90042 66.2857 12.6046 66.2857H13.7558C20.0869 66.2857 25.2259 61.1708 25.2259 54.8578V45.7135ZM48.1661 34.2857C48.1661 32.785 47.8695 31.2989 47.293 29.9124C46.7166 28.5259 45.8717 27.2662 44.8066 26.205C43.7415 25.1438 42.4771 24.302 41.0854 23.7277C39.6938 23.1534 38.2023 22.8578 36.696 22.8578C35.1897 22.8578 33.6982 23.1534 32.3066 23.7277C30.915 24.302 29.6505 25.1438 28.5854 26.205C27.5203 27.2662 26.6754 28.5259 26.099 29.9124C25.5226 31.2989 25.2259 32.785 25.2259 34.2857C25.2259 37.3165 26.4343 40.2233 28.5854 42.3664C30.7365 44.5095 33.654 45.7135 36.696 45.7135C39.7381 45.7135 42.6556 44.5095 44.8066 42.3664C46.9577 40.2233 48.1661 37.3165 48.1661 34.2857Z" stroke="#D7D7D7" stroke-width="4.57143" stroke-linecap="round" stroke-linejoin="round"/>
</svg>
