<svg width="64" height="64" viewBox="0 0 64 64" fill="none" xmlns="http://www.w3.org/2000/svg">
<path d="M62.7893 29.1466L34.8453 1.20526C34.0706 0.433393 33.0216 0 31.928 0C30.8344 0 29.7854 0.433393 29.0107 1.20526L23.2213 7.00526L30.5813 14.3653C31.4497 14.0711 32.3831 14.0264 33.2756 14.2361C34.1681 14.4459 34.9838 14.9019 35.6302 15.5521C36.2765 16.2023 36.7275 17.0208 36.9319 17.9145C37.1364 18.8082 37.086 19.7414 36.7867 20.6079L43.8747 27.7013C44.9237 27.3365 46.0654 27.3389 47.1129 27.7079C48.1604 28.0769 49.0515 28.7907 49.6403 29.7324C50.2291 30.6741 50.4805 31.7878 50.3535 32.8912C50.2266 33.9945 49.7286 35.0219 48.9413 35.8053C48.4864 36.261 47.946 36.6225 47.3511 36.8692C46.7563 37.1159 46.1186 37.2428 45.4747 37.2428C44.8307 37.2428 44.1931 37.1159 43.5982 36.8692C43.0034 36.6225 42.463 36.261 42.008 35.8053C41.3262 35.1215 40.8605 34.2523 40.669 33.3059C40.4774 32.3595 40.5684 31.3777 40.9307 30.4826L34.2933 23.8799V41.2799C34.7627 41.5093 35.2053 41.8213 35.5947 42.2079C36.5079 43.1306 37.0202 44.3764 37.0202 45.6746C37.0202 46.9728 36.5079 48.2186 35.5947 49.1413C35.138 49.5984 34.5957 49.961 33.9988 50.2084C33.4019 50.4558 32.7621 50.5831 32.116 50.5831C31.4699 50.5831 30.8301 50.4558 30.2332 50.2084C29.6363 49.961 29.094 49.5984 28.6373 49.1413C28.1815 48.6869 27.8198 48.147 27.573 47.5526C27.3261 46.9582 27.1991 46.3209 27.1991 45.6773C27.1991 45.0336 27.3261 44.3963 27.573 43.8019C27.8198 43.2075 28.1815 42.6676 28.6373 42.2133C29.1227 41.7333 29.6693 41.3706 30.2507 41.1306V23.5599C29.652 23.3152 29.1079 22.9542 28.6497 22.4978C28.1915 22.0413 27.8284 21.4986 27.5814 20.9009C27.3344 20.3032 27.2084 19.6625 27.2107 19.0158C27.213 18.369 27.3435 17.7292 27.5947 17.1333L20.3627 9.86659L1.2 29.0159C-0.4 30.6293 -0.4 33.2399 1.2 34.8533L29.1467 62.7919C29.5293 63.1749 29.9837 63.4788 30.4838 63.686C30.9839 63.8933 31.52 64 32.0613 64C32.6027 64 33.1388 63.8933 33.6389 63.686C34.139 63.4788 34.5934 63.1749 34.976 62.7919L62.7893 34.9786C63.173 34.5961 63.4775 34.1416 63.6852 33.6412C63.893 33.1409 63.9999 32.6044 63.9999 32.0626C63.9999 31.5208 63.893 30.9843 63.6852 30.4839C63.4775 29.9836 63.173 29.5291 62.7893 29.1466Z" fill="#D7D7D7"/>
</svg>
