<svg width="64" height="64" viewBox="0 0 64 64" fill="none" xmlns="http://www.w3.org/2000/svg">
<path d="M64 32.8008C64 39.9496 61.9648 46.3784 57.8944 52.0872C53.8272 57.796 48.5696 61.7448 42.1248 63.9368C41.376 64.0808 40.8256 63.9816 40.48 63.6392C40.3095 63.4733 40.1751 63.274 40.0854 63.0537C39.9956 62.8335 39.9524 62.597 39.9584 62.3592V53.3448C39.9584 50.5832 39.2352 48.5608 37.792 47.2808C39.2338 47.1361 40.6621 46.8793 42.064 46.5128C43.3248 46.1704 44.6304 45.6168 45.9776 44.8488C47.2728 44.1241 48.4185 43.1597 49.3536 42.0072C50.256 40.8808 50.992 39.3864 51.5616 37.5208C52.1312 35.6552 52.416 33.5144 52.416 31.0952C52.416 27.6488 51.3184 24.7144 49.1264 22.2952C50.1504 19.7032 50.0416 16.8008 48.7904 13.5816C48.0128 13.3256 46.8896 13.4856 45.4176 14.052C44.0824 14.5536 42.7986 15.1826 41.584 15.9304L40 16.9544C37.3983 16.2126 34.7053 15.8399 32 15.8472C29.2945 15.841 26.6015 16.2148 24 16.9576C23.4213 16.5568 22.8311 16.1726 22.2304 15.8056C21.4944 15.348 20.3328 14.8008 18.7488 14.1608C17.168 13.5208 15.9712 13.3288 15.1648 13.5848C13.9456 16.8008 13.8464 19.7032 14.8768 22.2952C12.6816 24.7144 11.5808 27.6488 11.5808 31.0952C11.5808 33.5144 11.8688 35.6488 12.4384 37.5016C13.008 39.3512 13.7376 40.8456 14.624 41.9848C15.5432 43.1494 16.6827 44.1215 17.9776 44.8456C19.3248 45.6136 20.6336 46.1704 21.8944 46.5096C23.1584 46.8552 24.5824 47.1112 26.1664 47.2808C25.056 48.3048 24.3744 49.7736 24.1248 51.6808C23.5282 51.9698 22.8984 52.1848 22.2496 52.3208C21.4677 52.4743 20.672 52.5461 19.8752 52.5352C18.9568 52.5352 18.0512 52.228 17.1456 51.6168C16.2432 51.0024 15.472 50.1128 14.832 48.948C14.3321 48.0671 13.6423 47.3085 12.8128 46.7272C11.9936 46.1576 11.3056 45.8152 10.7488 45.7032L9.9168 45.5752C9.3344 45.5752 8.9312 45.6392 8.7072 45.7672C8.4832 45.8952 8.4192 46.0552 8.4992 46.2568C8.59332 46.4739 8.71953 46.6756 8.8736 46.8552C9.03345 47.0473 9.21613 47.2193 9.4176 47.3672L9.7056 47.5784C10.32 47.8664 10.9216 48.4072 11.52 49.204C12.1184 50.0008 12.5568 50.7272 12.832 51.38L13.248 52.3624C13.6096 53.444 14.2208 54.3208 15.0848 54.9896C15.9456 55.6616 16.8768 56.0872 17.8752 56.2696C18.8736 56.4552 19.84 56.5576 20.7712 56.5704C21.6992 56.5832 22.4736 56.5352 23.0848 56.42L24.0416 56.2504C24.0416 57.332 24.048 58.5992 24.064 60.052L24.0832 62.356C24.0832 62.868 23.904 63.2968 23.5392 63.636C23.1808 63.9816 22.624 64.0808 21.8752 63.9368C15.4304 61.7448 10.1728 57.7928 6.1056 52.0872C2.0352 46.3784 0 39.9496 0 32.8008C0 26.8488 1.4304 21.364 4.2912 16.3368C7.06074 11.4061 11.0776 7.28992 15.9392 4.40079C20.7856 1.48339 26.3434 -0.0392222 32 0.000791351C37.6577 -0.0398123 43.2167 1.48282 48.064 4.40079C52.9244 7.29036 56.9401 11.4065 59.7088 16.3368C62.5696 21.3608 64 26.852 64 32.8008Z" fill="#D7D7D7"/>
</svg>
