<svg width="64" height="64" viewBox="0 0 64 64" fill="none" xmlns="http://www.w3.org/2000/svg">
<path fill-rule="evenodd" clip-rule="evenodd" d="M49 0C57.284 0.000201288 63.9999 6.69091 64 14.9443V48.8193C63.9998 57.0727 57.2839 63.7635 49 63.7637H15C6.71591 63.7637 0.000190379 57.0728 0 48.8193V14.9443C0.000136569 6.69078 6.71588 0 15 0H49ZM28.8135 29.2734V49.6475C28.8135 52.6432 27.5679 53.414 25.5918 53.4141C23.5301 53.4141 22.6706 52.0011 21.7256 50.332L16.8281 53.2852C18.2459 56.2811 21.0386 58.7637 25.8496 58.7637C31.1769 58.7636 34.8281 55.9384 34.8281 49.7324V29.2734H28.8135ZM48.7061 28.9307C43.3359 28.9307 39.8994 32.3553 39.8994 36.8496C39.8994 41.7289 42.7772 44.0407 47.1162 45.8809L48.6201 46.5225C51.3695 47.7205 53.0018 48.4487 53.002 50.5029C53.002 52.215 51.413 53.4569 48.9209 53.457C45.9569 53.457 44.2814 51.9158 42.9922 49.8184L38.0947 52.6436C39.856 56.1106 43.4652 58.7637 49.0498 58.7637C54.7633 58.7636 59.0163 55.8111 59.0166 50.418C59.0166 45.4103 56.1376 43.1841 51.0254 41.001L49.5225 40.3594C46.945 39.2463 45.8281 38.5183 45.8281 36.7207C45.8283 35.2658 46.9448 34.1534 48.7061 34.1533C50.4245 34.1533 51.5411 34.8805 52.5723 36.7207L57.2549 33.7246C55.2789 30.2579 52.5294 28.9307 48.7061 28.9307Z" fill="#D7D7D7"/>
</svg>
