<svg width="73" height="64" viewBox="0 0 73 64" fill="none" xmlns="http://www.w3.org/2000/svg">
<path d="M19.7404 53.4552H19.0408L15.6038 49.981V49.28L20.8658 44.0686H24.5158L24.9721 44.5257V48.1829L19.7708 53.4552H19.7404ZM15.6038 14.659V14.019L19.0408 10.5752H19.7404L24.9417 15.7867V19.4438L24.4854 19.901H20.8354L15.6038 14.659ZM45.8988 42.3619H40.88L40.4542 41.9657V30.2933C40.4542 28.221 39.6329 26.6362 37.1083 26.5448C35.8308 26.5448 34.3708 26.5448 32.7588 26.6057L32.5458 26.8495V41.9657L32.12 42.3924H27.0708L26.6754 41.9657V22.0343L27.0708 21.6076H38.325C39.3661 21.6036 40.3977 21.8056 41.3607 22.202C42.3237 22.5984 43.1991 23.1815 43.9367 23.9176C44.6743 24.6538 45.2595 25.5287 45.6589 26.4921C46.0582 27.4554 46.2638 28.4883 46.2638 29.5314V41.9657L45.8683 42.3924L45.8988 42.3619ZM20.44 34.9257H0.425833L0 34.499V29.501L0.425833 29.0743H20.44L20.8658 29.501V34.499L20.44 34.9257ZM72.5742 34.9257H52.56L52.1342 34.499V29.501L52.56 29.0743H72.5742L73 29.501V34.499L72.5742 34.9257ZM33.6104 15.3905V0.426667L34.0362 0H39.055L39.4808 0.426667V15.36L39.055 15.7867H34.0362L33.6104 15.3905ZM33.6104 63.5733V48.64L34.0362 48.2133H39.055L39.4808 48.6095V63.5733L39.055 64H34.0362L33.6104 63.5733Z" fill="#D7D7D7"/>
</svg>
