<svg width="283" height="64" viewBox="0 0 283 64" fill="none" xmlns="http://www.w3.org/2000/svg">
<path d="M141.179 16.0001C130.129 16.0001 122.161 23.2001 122.161 33.9997C122.161 44.7999 131.13 51.9999 142.181 51.9999C148.857 51.9999 154.743 49.3599 158.387 44.9098L150.729 40.4901C148.707 42.7 145.634 43.9899 142.18 43.9899C137.386 43.9899 133.312 41.4901 131.8 37.4901H159.848C160.069 36.3697 160.198 35.2096 160.198 33.9898C160.198 23.2001 152.231 16.0001 141.179 16.0001ZM131.711 30.5C132.962 26.5099 136.386 23.9997 141.17 23.9997C145.965 23.9997 149.389 26.5099 150.63 30.5H131.711ZM248.967 15.9996C237.916 15.9996 229.948 23.2001 229.948 33.9997C229.948 44.7999 238.917 51.9999 249.968 51.9999C256.645 51.9999 262.53 49.3599 266.174 44.9098L258.516 40.4901C256.494 42.7 253.422 43.9899 249.968 43.9899C245.173 43.9899 241.099 41.4901 239.588 37.4901H267.634C267.855 36.3697 267.984 35.2096 267.984 33.9898C267.984 23.2001 260.017 15.9996 248.966 15.9996H248.967ZM239.508 30.5C240.759 26.5099 244.182 23.9997 248.967 23.9997C253.761 23.9997 257.185 26.5099 258.426 30.5H239.508ZM200.439 33.9997C200.439 39.9998 204.363 43.9998 210.449 43.9998C214.573 43.9998 217.666 42.1301 219.258 39.0799L226.945 43.51C223.762 48.8099 217.796 51.9999 210.449 51.9999C199.388 51.9999 191.43 44.7994 191.43 33.9997C191.43 23.2001 199.398 16.0001 210.449 16.0001C217.796 16.0001 223.752 19.1901 226.945 24.49L219.258 28.9202C217.666 25.8699 214.573 24.0002 210.449 24.0002C204.373 24.0002 200.439 27.9991 200.439 33.9997ZM283 5.00004V50.9999H273.991V5.00004H283ZM36.9868 0L73.973 64H0L36.9868 0ZM129.458 5.00004L101.721 52.9999L73.9829 5.00004H84.3837L101.721 35.0003L119.058 5.00004H129.458ZM188.427 17.0001V26.6899C187.426 26.4 186.365 26.2001 185.224 26.2001C179.408 26.2001 175.213 30.2002 175.213 36.2002V50.9999H166.204V17.0001H175.213V26.1996C175.213 21.1195 181.129 17.0001 188.427 17.0001Z" fill="#D7D7D7"/>
</svg>
